<?xml version='1.0' encoding='UTF-8' standalone='no'?>
<!-- Created with Inkscape (http://www.inkscape.org/) -->
<svg xmlns="http://www.w3.org/2000/svg" height="84.603973"  width="124.05762" id="svg2" version="1.1" gorn="0" xml:space="preserve" xmlns:xml="http://www.w3.org/XML/1998/namespace">
    <desc >
        <referenceFile >Merkurboard_breadboard5.svg</referenceFile>
    </desc>
    <defs  id="defs76"/>
    <metadata  id="metadata8">
        <rdf:RDF xmlns:rdf="http://www.w3.org/1999/02/22-rdf-syntax-ns#">
            <cc:Work xmlns:cc="http://creativecommons.org/ns#" rdf:about="" xmlns:rdf="http://www.w3.org/1999/02/22-rdf-syntax-ns#">
                <dc:format xmlns:dc="http://purl.org/dc/elements/1.1/">image/svg+xml</dc:format>
                <dc:type xmlns:rdf="http://www.w3.org/1999/02/22-rdf-syntax-ns#" xmlns:dc="http://purl.org/dc/elements/1.1/" rdf:resource="http://purl.org/dc/dcmitype/StillImage"/>
                <dc:title xmlns:dc="http://purl.org/dc/elements/1.1/"/>
            </cc:Work>
        </rdf:RDF>
    </metadata>
    <rect fill-opacity="1" height="85"  width="124.40105" y="-0.10088963" id="rect3053" gorn="0.3" stroke="none" fill="#006000" x="2.9261335e-07"/>
    <g  transform="matrix(1.25,0,0,-1.25,-311.20649,504.26486)">
        <g >
            <g >
                <g >
                    <g >
                        <g >
                            <g >
                                <g  id="g10" gorn="0.4.0.0.0.0.0.0.0">
                                    <g  transform="matrix(0.06,0,0,-0.06,0,420)">
                                        <g >
                                            <g >
                                                <g >
                                                    <g >
                                                        <g >
                                                            <g >
                                                                <g  id="g12" gorn="0.4.0.0.0.0.0.0.0.0.0.0.0.0.0.0.0">
                                                                    <g  id="g48" gorn="0.4.0.0.0.0.0.0.0.0.0.0.0.0.0.0.0.0">
                                                                        <path  id="connector1pin" stroke-opacity="1" gorn="0.4.0.0.0.0.0.0.0.0.0.0.0.0.0.0.0.0.0" d="m 4391,1348 0,-58" stroke-width="58" style="stroke-linecap:round;stroke-linejoin:round;stroke-miterlimit:10;stroke-dasharray:none" stroke="#c0c0c0" fill="none"/>
                                                                        <path fill-opacity="1"  id="path52" stroke-opacity="1" gorn="0.4.0.0.0.0.0.0.0.0.0.0.0.0.0.0.0.0.1" d="m 4410,1319 c 0,10.4934 -8.5066,19 -19,19 -10.4934,0 -19,-8.5066 -19,-19 0,-10.4934 8.5066,-19 19,-19 10.4934,0 19,8.5066 19,19 z" stroke-width="1" style="fill-rule:evenodd;stroke-linecap:square;stroke-linejoin:bevel;stroke-miterlimit:10;stroke-dasharray:none" stroke="#000000" fill="#ffffff"/>
                                                                        <path  id="connector2pin" stroke-opacity="1" gorn="0.4.0.0.0.0.0.0.0.0.0.0.0.0.0.0.0.0.2" d="m 4511,1348 0,-58" stroke-width="58" style="stroke-linecap:round;stroke-linejoin:round;stroke-miterlimit:10;stroke-dasharray:none" stroke="#c0c0c0" fill="none"/>
                                                                        <path fill-opacity="1"  id="path56" stroke-opacity="1" gorn="0.4.0.0.0.0.0.0.0.0.0.0.0.0.0.0.0.0.3" d="m 4530,1319 c 0,10.4934 -8.5066,19 -19,19 -10.4934,0 -19,-8.5066 -19,-19 0,-10.4934 8.5066,-19 19,-19 10.4934,0 19,8.5066 19,19 z" stroke-width="1" style="fill-rule:evenodd;stroke-linecap:square;stroke-linejoin:bevel;stroke-miterlimit:10;stroke-dasharray:none" stroke="#000000" fill="#ffffff"/>
                                                                        <path  id="connector3pin" stroke-opacity="1" gorn="0.4.0.0.0.0.0.0.0.0.0.0.0.0.0.0.0.0.4" d="m 4631,1348 0,-58" stroke-width="58" style="stroke-linecap:round;stroke-linejoin:round;stroke-miterlimit:10;stroke-dasharray:none" stroke="#c0c0c0" fill="none"/>
                                                                        <path fill-opacity="1"  id="path60" stroke-opacity="1" gorn="0.4.0.0.0.0.0.0.0.0.0.0.0.0.0.0.0.0.5" d="m 4650,1319 c 0,10.4934 -8.5066,19 -19,19 -10.4934,0 -19,-8.5066 -19,-19 0,-10.4934 8.5066,-19 19,-19 10.4934,0 19,8.5066 19,19 z" stroke-width="1" style="fill-rule:evenodd;stroke-linecap:square;stroke-linejoin:bevel;stroke-miterlimit:10;stroke-dasharray:none" stroke="#000000" fill="#ffffff"/>
                                                                        <path  id="connector4pin" stroke-opacity="1" gorn="0.4.0.0.0.0.0.0.0.0.0.0.0.0.0.0.0.0.6" d="m 4750,1348 0,-58" stroke-width="58" style="stroke-linecap:round;stroke-linejoin:round;stroke-miterlimit:10;stroke-dasharray:none" stroke="#c0c0c0" fill="none"/>
                                                                        <path fill-opacity="1"  id="path64" stroke-opacity="1" gorn="0.4.0.0.0.0.0.0.0.0.0.0.0.0.0.0.0.0.7" d="m 4769,1319 c 0,10.4934 -8.5066,19 -19,19 -10.4934,0 -19,-8.5066 -19,-19 0,-10.4934 8.5066,-19 19,-19 10.4934,0 19,8.5066 19,19 z" stroke-width="1" style="fill-rule:evenodd;stroke-linecap:square;stroke-linejoin:bevel;stroke-miterlimit:10;stroke-dasharray:none" stroke="#000000" fill="#ffffff"/>
                                                                        <path  id="connector5pin" stroke-opacity="1" gorn="0.4.0.0.0.0.0.0.0.0.0.0.0.0.0.0.0.0.8" d="m 4870,1348 0,-58" stroke-width="58" style="stroke-linecap:round;stroke-linejoin:round;stroke-miterlimit:10;stroke-dasharray:none" stroke="#c0c0c0" fill="none"/>
                                                                        <path fill-opacity="1"  id="path68" stroke-opacity="1" gorn="0.4.0.0.0.0.0.0.0.0.0.0.0.0.0.0.0.0.9" d="m 4889,1319 c 0,10.4934 -8.5066,19 -19,19 -10.4934,0 -19,-8.5066 -19,-19 0,-10.4934 8.5066,-19 19,-19 10.4934,0 19,8.5066 19,19 z" stroke-width="1" style="fill-rule:evenodd;stroke-linecap:square;stroke-linejoin:bevel;stroke-miterlimit:10;stroke-dasharray:none" stroke="#000000" fill="#ffffff"/>
                                                                        <path  id="connector6pin" stroke-opacity="1" gorn="0.4.0.0.0.0.0.0.0.0.0.0.0.0.0.0.0.0.10" d="m 4990,1348 0,-58" stroke-width="58" style="stroke-linecap:round;stroke-linejoin:round;stroke-miterlimit:10;stroke-dasharray:none" stroke="#c0c0c0" fill="none"/>
                                                                        <path fill-opacity="1"  id="path72" stroke-opacity="1" gorn="0.4.0.0.0.0.0.0.0.0.0.0.0.0.0.0.0.0.11" d="m 5009,1319 c 0,10.4934 -8.5066,19 -19,19 -10.4934,0 -19,-8.5066 -19,-19 0,-10.4934 8.5066,-19 19,-19 10.4934,0 19,8.5066 19,19 z" stroke-width="1" style="fill-rule:evenodd;stroke-linecap:square;stroke-linejoin:bevel;stroke-miterlimit:10;stroke-dasharray:none" stroke="#000000" fill="#ffffff"/>
                                                                        <path  id="connector7pin" stroke-opacity="1" gorn="0.4.0.0.0.0.0.0.0.0.0.0.0.0.0.0.0.0.12" d="m 5110,1348 0,-58" stroke-width="58" style="stroke-linecap:round;stroke-linejoin:round;stroke-miterlimit:10;stroke-dasharray:none" stroke="#c0c0c0" fill="none"/>
                                                                        <path fill-opacity="1"  id="path76" stroke-opacity="1" gorn="0.4.0.0.0.0.0.0.0.0.0.0.0.0.0.0.0.0.13" d="m 5129,1319 c 0,10.4934 -8.5066,19 -19,19 -10.4934,0 -19,-8.5066 -19,-19 0,-10.4934 8.5066,-19 19,-19 10.4934,0 19,8.5066 19,19 z" stroke-width="1" style="fill-rule:evenodd;stroke-linecap:square;stroke-linejoin:bevel;stroke-miterlimit:10;stroke-dasharray:none" stroke="#000000" fill="#ffffff"/>
                                                                        <path  id="connector8pin" stroke-opacity="1" gorn="0.4.0.0.0.0.0.0.0.0.0.0.0.0.0.0.0.0.14" d="m 5230,1348 0,-58" stroke-width="58" style="stroke-linecap:round;stroke-linejoin:round;stroke-miterlimit:10;stroke-dasharray:none" stroke="#c0c0c0" fill="none"/>
                                                                        <path fill-opacity="1"  id="path80" stroke-opacity="1" gorn="0.4.0.0.0.0.0.0.0.0.0.0.0.0.0.0.0.0.15" d="m 5249,1319 c 0,10.4934 -8.5066,19 -19,19 -10.4934,0 -19,-8.5066 -19,-19 0,-10.4934 8.5066,-19 19,-19 10.4934,0 19,8.5066 19,19 z" stroke-width="1" style="fill-rule:evenodd;stroke-linecap:square;stroke-linejoin:bevel;stroke-miterlimit:10;stroke-dasharray:none" stroke="#000000" fill="#ffffff"/>
                                                                        <path  id="connector9pin" stroke-opacity="1" gorn="0.4.0.0.0.0.0.0.0.0.0.0.0.0.0.0.0.0.16" d="m 5350,1348 0,-58" stroke-width="58" style="stroke-linecap:round;stroke-linejoin:round;stroke-miterlimit:10;stroke-dasharray:none" stroke="#c0c0c0" fill="none"/>
                                                                        <path fill-opacity="1"  id="path84" stroke-opacity="1" gorn="0.4.0.0.0.0.0.0.0.0.0.0.0.0.0.0.0.0.17" d="m 5369,1319 c 0,10.4934 -8.5066,19 -19,19 -10.4934,0 -19,-8.5066 -19,-19 0,-10.4934 8.5066,-19 19,-19 10.4934,0 19,8.5066 19,19 z" stroke-width="1" style="fill-rule:evenodd;stroke-linecap:square;stroke-linejoin:bevel;stroke-miterlimit:10;stroke-dasharray:none" stroke="#000000" fill="#ffffff"/>
                                                                        <path  id="connector10pin" stroke-opacity="1" gorn="0.4.0.0.0.0.0.0.0.0.0.0.0.0.0.0.0.0.18" d="m 5470,1348 0,-58" stroke-width="58" style="stroke-linecap:round;stroke-linejoin:round;stroke-miterlimit:10;stroke-dasharray:none" stroke="#c0c0c0" fill="none"/>
                                                                        <path fill-opacity="1"  id="path88" stroke-opacity="1" gorn="0.4.0.0.0.0.0.0.0.0.0.0.0.0.0.0.0.0.19" d="m 5489,1319 c 0,10.4934 -8.5066,19 -19,19 -10.4934,0 -19,-8.5066 -19,-19 0,-10.4934 8.5066,-19 19,-19 10.4934,0 19,8.5066 19,19 z" stroke-width="1" style="fill-rule:evenodd;stroke-linecap:square;stroke-linejoin:bevel;stroke-miterlimit:10;stroke-dasharray:none" stroke="#000000" fill="#ffffff"/>
                                                                        <path  id="connector11pin" stroke-opacity="1" gorn="0.4.0.0.0.0.0.0.0.0.0.0.0.0.0.0.0.0.20" d="m 5590,1348 0,-58" stroke-width="58" style="stroke-linecap:round;stroke-linejoin:round;stroke-miterlimit:10;stroke-dasharray:none" stroke="#c0c0c0" fill="none"/>
                                                                        <path fill-opacity="1"  id="path92" stroke-opacity="1" gorn="0.4.0.0.0.0.0.0.0.0.0.0.0.0.0.0.0.0.21" d="m 5609,1319 c 0,10.4934 -8.5066,19 -19,19 -10.4934,0 -19,-8.5066 -19,-19 0,-10.4934 8.5066,-19 19,-19 10.4934,0 19,8.5066 19,19 z" stroke-width="1" style="fill-rule:evenodd;stroke-linecap:square;stroke-linejoin:bevel;stroke-miterlimit:10;stroke-dasharray:none" stroke="#000000" fill="#ffffff"/>
                                                                        <path  id="connector12pin" stroke-opacity="1" gorn="0.4.0.0.0.0.0.0.0.0.0.0.0.0.0.0.0.0.22" d="m 5710,1348 0,-58" stroke-width="58" style="stroke-linecap:round;stroke-linejoin:round;stroke-miterlimit:10;stroke-dasharray:none" stroke="#c0c0c0" fill="none"/>
                                                                        <path fill-opacity="1"  id="path96" stroke-opacity="1" gorn="0.4.0.0.0.0.0.0.0.0.0.0.0.0.0.0.0.0.23" d="m 5729,1319 c 0,10.4934 -8.5066,19 -19,19 -10.4934,0 -19,-8.5066 -19,-19 0,-10.4934 8.5066,-19 19,-19 10.4934,0 19,8.5066 19,19 z" stroke-width="1" style="fill-rule:evenodd;stroke-linecap:square;stroke-linejoin:bevel;stroke-miterlimit:10;stroke-dasharray:none" stroke="#000000" fill="#ffffff"/>
                                                                        <path  id="connector13pin" stroke-opacity="1" gorn="0.4.0.0.0.0.0.0.0.0.0.0.0.0.0.0.0.0.24" d="m 5710,332 0,58" stroke-width="58" style="stroke-linecap:round;stroke-linejoin:round;stroke-miterlimit:10;stroke-dasharray:none" stroke="#c0c0c0" fill="none"/>
                                                                        <path fill-opacity="1"  id="path100" stroke-opacity="1" gorn="0.4.0.0.0.0.0.0.0.0.0.0.0.0.0.0.0.0.25" d="m 5729,361 c 0,10.49341 -8.5066,19 -19,19 -10.4934,0 -19,-8.50659 -19,-19 0,-10.49341 8.5066,-19 19,-19 10.4934,0 19,8.50659 19,19 z" stroke-width="1" style="fill-rule:evenodd;stroke-linecap:square;stroke-linejoin:bevel;stroke-miterlimit:10;stroke-dasharray:none" stroke="#000000" fill="#ffffff"/>
                                                                        <path  id="connector14pin" stroke-opacity="1" gorn="0.4.0.0.0.0.0.0.0.0.0.0.0.0.0.0.0.0.26" d="m 5590,332 0,58" stroke-width="58" style="stroke-linecap:round;stroke-linejoin:round;stroke-miterlimit:10;stroke-dasharray:none" stroke="#c0c0c0" fill="none"/>
                                                                        <path fill-opacity="1"  id="path104" stroke-opacity="1" gorn="0.4.0.0.0.0.0.0.0.0.0.0.0.0.0.0.0.0.27" d="m 5609,361 c 0,10.49341 -8.5066,19 -19,19 -10.4934,0 -19,-8.50659 -19,-19 0,-10.49341 8.5066,-19 19,-19 10.4934,0 19,8.50659 19,19 z" stroke-width="1" style="fill-rule:evenodd;stroke-linecap:square;stroke-linejoin:bevel;stroke-miterlimit:10;stroke-dasharray:none" stroke="#000000" fill="#ffffff"/>
                                                                        <path  id="connector15pin" stroke-opacity="1" gorn="0.4.0.0.0.0.0.0.0.0.0.0.0.0.0.0.0.0.28" d="m 5470,332 0,58" stroke-width="58" style="stroke-linecap:round;stroke-linejoin:round;stroke-miterlimit:10;stroke-dasharray:none" stroke="#c0c0c0" fill="none"/>
                                                                        <path fill-opacity="1"  id="path108" stroke-opacity="1" gorn="0.4.0.0.0.0.0.0.0.0.0.0.0.0.0.0.0.0.29" d="m 5489,361 c 0,10.49341 -8.5066,19 -19,19 -10.4934,0 -19,-8.50659 -19,-19 0,-10.49341 8.5066,-19 19,-19 10.4934,0 19,8.50659 19,19 z" stroke-width="1" style="fill-rule:evenodd;stroke-linecap:square;stroke-linejoin:bevel;stroke-miterlimit:10;stroke-dasharray:none" stroke="#000000" fill="#ffffff"/>
                                                                        <path  id="connector16pin" stroke-opacity="1" gorn="0.4.0.0.0.0.0.0.0.0.0.0.0.0.0.0.0.0.30" d="m 5350,332 0,58" stroke-width="58" style="stroke-linecap:round;stroke-linejoin:round;stroke-miterlimit:10;stroke-dasharray:none" stroke="#c0c0c0" fill="none"/>
                                                                        <path fill-opacity="1"  id="path112" stroke-opacity="1" gorn="0.4.0.0.0.0.0.0.0.0.0.0.0.0.0.0.0.0.31" d="m 5369,361 c 0,10.49341 -8.5066,19 -19,19 -10.4934,0 -19,-8.50659 -19,-19 0,-10.49341 8.5066,-19 19,-19 10.4934,0 19,8.50659 19,19 z" stroke-width="1" style="fill-rule:evenodd;stroke-linecap:square;stroke-linejoin:bevel;stroke-miterlimit:10;stroke-dasharray:none" stroke="#000000" fill="#ffffff"/>
                                                                        <path  id="connector17pin" stroke-opacity="1" gorn="0.4.0.0.0.0.0.0.0.0.0.0.0.0.0.0.0.0.32" d="m 5230,332 0,58" stroke-width="58" style="stroke-linecap:round;stroke-linejoin:round;stroke-miterlimit:10;stroke-dasharray:none" stroke="#c0c0c0" fill="none"/>
                                                                        <path fill-opacity="1"  id="path116" stroke-opacity="1" gorn="0.4.0.0.0.0.0.0.0.0.0.0.0.0.0.0.0.0.33" d="m 5249,361 c 0,10.49341 -8.5066,19 -19,19 -10.4934,0 -19,-8.50659 -19,-19 0,-10.49341 8.5066,-19 19,-19 10.4934,0 19,8.50659 19,19 z" stroke-width="1" style="fill-rule:evenodd;stroke-linecap:square;stroke-linejoin:bevel;stroke-miterlimit:10;stroke-dasharray:none" stroke="#000000" fill="#ffffff"/>
                                                                        <path  id="connector18pin" stroke-opacity="1" gorn="0.4.0.0.0.0.0.0.0.0.0.0.0.0.0.0.0.0.34" d="m 5110,332 0,58" stroke-width="58" style="stroke-linecap:round;stroke-linejoin:round;stroke-miterlimit:10;stroke-dasharray:none" stroke="#c0c0c0" fill="none"/>
                                                                        <path fill-opacity="1"  id="path120" stroke-opacity="1" gorn="0.4.0.0.0.0.0.0.0.0.0.0.0.0.0.0.0.0.35" d="m 5129,361 c 0,10.49341 -8.5066,19 -19,19 -10.4934,0 -19,-8.50659 -19,-19 0,-10.49341 8.5066,-19 19,-19 10.4934,0 19,8.50659 19,19 z" stroke-width="1" style="fill-rule:evenodd;stroke-linecap:square;stroke-linejoin:bevel;stroke-miterlimit:10;stroke-dasharray:none" stroke="#000000" fill="#ffffff"/>
                                                                        <path  id="connector19pin" stroke-opacity="1" gorn="0.4.0.0.0.0.0.0.0.0.0.0.0.0.0.0.0.0.36" d="m 4990,332 0,58" stroke-width="58" style="stroke-linecap:round;stroke-linejoin:round;stroke-miterlimit:10;stroke-dasharray:none" stroke="#c0c0c0" fill="none"/>
                                                                        <path fill-opacity="1"  id="path124" stroke-opacity="1" gorn="0.4.0.0.0.0.0.0.0.0.0.0.0.0.0.0.0.0.37" d="m 5009,361 c 0,10.49341 -8.5066,19 -19,19 -10.4934,0 -19,-8.50659 -19,-19 0,-10.49341 8.5066,-19 19,-19 10.4934,0 19,8.50659 19,19 z" stroke-width="1" style="fill-rule:evenodd;stroke-linecap:square;stroke-linejoin:bevel;stroke-miterlimit:10;stroke-dasharray:none" stroke="#000000" fill="#ffffff"/>
                                                                        <path  id="connector20pin" stroke-opacity="1" gorn="0.4.0.0.0.0.0.0.0.0.0.0.0.0.0.0.0.0.38" d="m 4870,332 0,58" stroke-width="58" style="stroke-linecap:round;stroke-linejoin:round;stroke-miterlimit:10;stroke-dasharray:none" stroke="#c0c0c0" fill="none"/>
                                                                        <path fill-opacity="1"  id="path128" stroke-opacity="1" gorn="0.4.0.0.0.0.0.0.0.0.0.0.0.0.0.0.0.0.39" d="m 4889,361 c 0,10.49341 -8.5066,19 -19,19 -10.4934,0 -19,-8.50659 -19,-19 0,-10.49341 8.5066,-19 19,-19 10.4934,0 19,8.50659 19,19 z" stroke-width="1" style="fill-rule:evenodd;stroke-linecap:square;stroke-linejoin:bevel;stroke-miterlimit:10;stroke-dasharray:none" stroke="#000000" fill="#ffffff"/>
                                                                        <path  id="connector21pin" stroke-opacity="1" gorn="0.4.0.0.0.0.0.0.0.0.0.0.0.0.0.0.0.0.40" d="m 4750,332 0,58" stroke-width="58" style="stroke-linecap:round;stroke-linejoin:round;stroke-miterlimit:10;stroke-dasharray:none" stroke="#c0c0c0" fill="none"/>
                                                                        <path fill-opacity="1"  id="path132" stroke-opacity="1" gorn="0.4.0.0.0.0.0.0.0.0.0.0.0.0.0.0.0.0.41" d="m 4769,361 c 0,10.49341 -8.5066,19 -19,19 -10.4934,0 -19,-8.50659 -19,-19 0,-10.49341 8.5066,-19 19,-19 10.4934,0 19,8.50659 19,19 z" stroke-width="1" style="fill-rule:evenodd;stroke-linecap:square;stroke-linejoin:bevel;stroke-miterlimit:10;stroke-dasharray:none" stroke="#000000" fill="#ffffff"/>
                                                                        <path  id="connector22pin" stroke-opacity="1" gorn="0.4.0.0.0.0.0.0.0.0.0.0.0.0.0.0.0.0.42" d="m 4631,332 0,58" stroke-width="58" style="stroke-linecap:round;stroke-linejoin:round;stroke-miterlimit:10;stroke-dasharray:none" stroke="#c0c0c0" fill="none"/>
                                                                        <path fill-opacity="1"  id="path136" stroke-opacity="1" gorn="0.4.0.0.0.0.0.0.0.0.0.0.0.0.0.0.0.0.43" d="m 4650,361 c 0,10.49341 -8.5066,19 -19,19 -10.4934,0 -19,-8.50659 -19,-19 0,-10.49341 8.5066,-19 19,-19 10.4934,0 19,8.50659 19,19 z" stroke-width="1" style="fill-rule:evenodd;stroke-linecap:square;stroke-linejoin:bevel;stroke-miterlimit:10;stroke-dasharray:none" stroke="#000000" fill="#ffffff"/>
                                                                        <path  id="connector23pin" stroke-opacity="1" gorn="0.4.0.0.0.0.0.0.0.0.0.0.0.0.0.0.0.0.44" d="m 4511,332 0,58" stroke-width="58" style="stroke-linecap:round;stroke-linejoin:round;stroke-miterlimit:10;stroke-dasharray:none" stroke="#c0c0c0" fill="none"/>
                                                                        <path fill-opacity="1"  id="path140" stroke-opacity="1" gorn="0.4.0.0.0.0.0.0.0.0.0.0.0.0.0.0.0.0.45" d="m 4530,361 c 0,10.49341 -8.5066,19 -19,19 -10.4934,0 -19,-8.50659 -19,-19 0,-10.49341 8.5066,-19 19,-19 10.4934,0 19,8.50659 19,19 z" stroke-width="1" style="fill-rule:evenodd;stroke-linecap:square;stroke-linejoin:bevel;stroke-miterlimit:10;stroke-dasharray:none" stroke="#000000" fill="#ffffff"/>
                                                                        <path  id="connector24pin" stroke-opacity="1" gorn="0.4.0.0.0.0.0.0.0.0.0.0.0.0.0.0.0.0.46" d="m 4391,332 0,58" stroke-width="58" style="stroke-linecap:round;stroke-linejoin:round;stroke-miterlimit:10;stroke-dasharray:none" stroke="#c0c0c0" fill="none"/>
                                                                        <path fill-opacity="1"  id="path144" stroke-opacity="1" gorn="0.4.0.0.0.0.0.0.0.0.0.0.0.0.0.0.0.0.47" d="m 4410,361 c 0,10.49341 -8.5066,19 -19,19 -10.4934,0 -19,-8.50659 -19,-19 0,-10.49341 8.5066,-19 19,-19 10.4934,0 19,8.50659 19,19 z" stroke-width="1" style="fill-rule:evenodd;stroke-linecap:square;stroke-linejoin:bevel;stroke-miterlimit:10;stroke-dasharray:none" stroke="#000000" fill="#ffffff"/>
                                                                        <path  id="connector25pin" stroke-opacity="1" gorn="0.4.0.0.0.0.0.0.0.0.0.0.0.0.0.0.0.0.48" d="m 4271,332 0,58" stroke-width="58" style="stroke-linecap:round;stroke-linejoin:round;stroke-miterlimit:10;stroke-dasharray:none" stroke="#c0c0c0" fill="none"/>
                                                                        <path fill-opacity="1"  id="path148" stroke-opacity="1" gorn="0.4.0.0.0.0.0.0.0.0.0.0.0.0.0.0.0.0.49" d="m 4290,361 c 0,10.49341 -8.5066,19 -19,19 -10.4934,0 -19,-8.50659 -19,-19 0,-10.49341 8.5066,-19 19,-19 10.4934,0 19,8.50659 19,19 z" stroke-width="1" style="fill-rule:evenodd;stroke-linecap:square;stroke-linejoin:bevel;stroke-miterlimit:10;stroke-dasharray:none" stroke="#000000" fill="#ffffff"/>
                                                                        <path  id="connector30pin" stroke-opacity="1" gorn="0.4.0.0.0.0.0.0.0.0.0.0.0.0.0.0.0.0.50" d="m 4270,1169 -58,0" stroke-width="58" style="stroke-linecap:round;stroke-linejoin:round;stroke-miterlimit:10;stroke-dasharray:none" stroke="#c0c0c0" fill="none"/>
                                                                        <path fill-opacity="1"  id="path152" stroke-opacity="1" gorn="0.4.0.0.0.0.0.0.0.0.0.0.0.0.0.0.0.0.51" d="m 4260,1169 c 0,10.4934 -8.5066,19 -19,19 -10.4934,0 -19,-8.5066 -19,-19 0,-10.4934 8.5066,-19 19,-19 10.4934,0 19,8.5066 19,19 z" stroke-width="1" style="fill-rule:evenodd;stroke-linecap:square;stroke-linejoin:bevel;stroke-miterlimit:10;stroke-dasharray:none" stroke="#000000" fill="#ffffff"/>
                                                                        <path  id="connector29pin" stroke-opacity="1" gorn="0.4.0.0.0.0.0.0.0.0.0.0.0.0.0.0.0.0.52" d="m 4270,1050 -58,0" stroke-width="58" style="stroke-linecap:round;stroke-linejoin:round;stroke-miterlimit:10;stroke-dasharray:none" stroke="#c0c0c0" fill="none"/>
                                                                        <path fill-opacity="1"  id="path156" stroke-opacity="1" gorn="0.4.0.0.0.0.0.0.0.0.0.0.0.0.0.0.0.0.53" d="m 4260,1050 c 0,10.4934 -8.5066,19 -19,19 -10.4934,0 -19,-8.5066 -19,-19 0,-10.4934 8.5066,-19 19,-19 10.4934,0 19,8.5066 19,19 z" stroke-width="1" style="fill-rule:evenodd;stroke-linecap:square;stroke-linejoin:bevel;stroke-miterlimit:10;stroke-dasharray:none" stroke="#000000" fill="#ffffff"/>
                                                                        <path  id="connector28pin" stroke-opacity="1" gorn="0.4.0.0.0.0.0.0.0.0.0.0.0.0.0.0.0.0.54" d="m 4270,930 -58,0" stroke-width="58" style="stroke-linecap:round;stroke-linejoin:round;stroke-miterlimit:10;stroke-dasharray:none" stroke="#c0c0c0" fill="none"/>
                                                                        <path fill-opacity="1"  id="path160" stroke-opacity="1" gorn="0.4.0.0.0.0.0.0.0.0.0.0.0.0.0.0.0.0.55" d="m 4260,930 c 0,10.49341 -8.5066,19 -19,19 -10.4934,0 -19,-8.50659 -19,-19 0,-10.49341 8.5066,-19 19,-19 10.4934,0 19,8.50659 19,19 z" stroke-width="1" style="fill-rule:evenodd;stroke-linecap:square;stroke-linejoin:bevel;stroke-miterlimit:10;stroke-dasharray:none" stroke="#000000" fill="#ffffff"/>
                                                                        <path  id="connector27pin" stroke-opacity="1" gorn="0.4.0.0.0.0.0.0.0.0.0.0.0.0.0.0.0.0.56" d="m 4270,810 -58,0" stroke-width="58" style="stroke-linecap:round;stroke-linejoin:round;stroke-miterlimit:10;stroke-dasharray:none" stroke="#c0c0c0" fill="none"/>
                                                                        <path fill-opacity="1"  id="path164" stroke-opacity="1" gorn="0.4.0.0.0.0.0.0.0.0.0.0.0.0.0.0.0.0.57" d="m 4260,810 c 0,10.49341 -8.5066,19 -19,19 -10.4934,0 -19,-8.50659 -19,-19 0,-10.49341 8.5066,-19 19,-19 10.4934,0 19,8.50659 19,19 z" stroke-width="1" style="fill-rule:evenodd;stroke-linecap:square;stroke-linejoin:bevel;stroke-miterlimit:10;stroke-dasharray:none" stroke="#000000" fill="#ffffff"/>
                                                                        <path  id="connector26pin" stroke-opacity="1" gorn="0.4.0.0.0.0.0.0.0.0.0.0.0.0.0.0.0.0.58" d="m 4270,690 -58,0" stroke-width="58" style="stroke-linecap:round;stroke-linejoin:round;stroke-miterlimit:10;stroke-dasharray:none" stroke="#c0c0c0" fill="none"/>
                                                                        <path fill-opacity="1"  id="path168" stroke-opacity="1" gorn="0.4.0.0.0.0.0.0.0.0.0.0.0.0.0.0.0.0.59" d="m 4260,690 c 0,10.49341 -8.5066,19 -19,19 -10.4934,0 -19,-8.50659 -19,-19 0,-10.49341 8.5066,-19 19,-19 10.4934,0 19,8.50659 19,19 z" stroke-width="1" style="fill-rule:evenodd;stroke-linecap:square;stroke-linejoin:bevel;stroke-miterlimit:10;stroke-dasharray:none" stroke="#000000" fill="#ffffff"/>
                                                                        <path  id="connector31pin" stroke-opacity="1" gorn="0.4.0.0.0.0.0.0.0.0.0.0.0.0.0.0.0.0.60" d="m 4270,571 -58,0" stroke-width="58" style="stroke-linecap:round;stroke-linejoin:round;stroke-miterlimit:10;stroke-dasharray:none" stroke="#c0c0c0" fill="none"/>
                                                                        <path fill-opacity="1"  id="path172" stroke-opacity="1" gorn="0.4.0.0.0.0.0.0.0.0.0.0.0.0.0.0.0.0.61" d="m 4260,571 c 0,10.49341 -8.5066,19 -19,19 -10.4934,0 -19,-8.50659 -19,-19 0,-10.49341 8.5066,-19 19,-19 10.4934,0 19,8.50659 19,19 z" stroke-width="1" style="fill-rule:evenodd;stroke-linecap:square;stroke-linejoin:bevel;stroke-miterlimit:10;stroke-dasharray:none" stroke="#000000" fill="#ffffff"/>
                                                                        <path  id="path174" stroke-opacity="1" gorn="0.4.0.0.0.0.0.0.0.0.0.0.0.0.0.0.0.0.62" d="m 5648,840 -57,0" stroke-width="58" style="stroke-linecap:round;stroke-linejoin:round;stroke-miterlimit:10;stroke-dasharray:none" stroke="#c0c0c0" fill="none"/>
                                                                        <path fill-opacity="1"  id="path176" stroke-opacity="1" gorn="0.4.0.0.0.0.0.0.0.0.0.0.0.0.0.0.0.0.63" d="m 5639,840 c 0,10.49341 -8.5066,19 -19,19 -10.4934,0 -19,-8.50659 -19,-19 0,-10.49341 8.5066,-19 19,-19 10.4934,0 19,8.50659 19,19 z" stroke-width="1" style="fill-rule:evenodd;stroke-linecap:square;stroke-linejoin:bevel;stroke-miterlimit:10;stroke-dasharray:none" stroke="#000000" fill="#ffffff"/>
                                                                        <path  id="path178" stroke-opacity="1" gorn="0.4.0.0.0.0.0.0.0.0.0.0.0.0.0.0.0.0.64" d="m 4151,1403 1651,0" stroke-width="3" style="stroke-linecap:round;stroke-linejoin:round;stroke-miterlimit:10;stroke-dasharray:none" stroke="#008000" fill="none"/>
                                                                        <path  id="path180" stroke-opacity="1" gorn="0.4.0.0.0.0.0.0.0.0.0.0.0.0.0.0.0.0.65" d="m 5802,1403 0,-1125" stroke-width="3" style="stroke-linecap:round;stroke-linejoin:round;stroke-miterlimit:10;stroke-dasharray:none" stroke="#008000" fill="none"/>
                                                                        <path  id="path182" stroke-opacity="1" gorn="0.4.0.0.0.0.0.0.0.0.0.0.0.0.0.0.0.0.66" d="m 5802,278 -1651,0" stroke-width="3" style="stroke-linecap:round;stroke-linejoin:round;stroke-miterlimit:10;stroke-dasharray:none" stroke="#008000" fill="none"/>
                                                                        <path  id="path184" stroke-opacity="1" gorn="0.4.0.0.0.0.0.0.0.0.0.0.0.0.0.0.0.0.67" d="m 4151,278 0,1125" stroke-width="3" style="stroke-linecap:round;stroke-linejoin:round;stroke-miterlimit:10;stroke-dasharray:none" stroke="#008000" fill="none"/>
                                                                    </g>
                                                                </g>
                                                            </g>
                                                        </g>
                                                    </g>
                                                </g>
                                            </g>
                                        </g>
                                    </g>
                                </g>
                            </g>
                        </g>
                    </g>
                </g>
            </g>
        </g>
    </g>
    <rect fill-opacity="1" height="46.747616"  width="69.599686" y="19.386875" id="rect3862" gorn="0.5" stroke="none" fill="#000000" x="34.852016"/>
    <g fill-opacity="1"  id="text3864" gorn="0.6" font-size="7" style="font-style:normal;font-variant:normal;font-weight:500;font-stretch:normal;line-height:125%;letter-spacing:0px;word-spacing:0px;font-family:OCRA;-inkscape-font-specification:OCRA Medium" xml:space="preserve" xmlns:xml="http://www.w3.org/XML/1998/namespace" stroke="none" fill="#ffffff">
        <text  y="39.386765" id="tspan3866" gorn="0.6.0" x="42.034531">deRFmega256</text>
        <text  y="49.386765" id="tspan3867" gorn="0.6.1" x="42.034531">22M10</text>
    </g>
</svg>
